<?xml version="1.0" encoding="UTF-8" standalone="no"?>
<!-- Generator: Adobe Illustrator 21.0.0, SVG Export Plug-In . SVG Version: 6.00 Build 0)  -->

<svg
   version="1.1"
   id="greenflag"
   x="0px"
   y="0px"
   viewBox="0 0 24 24"
   style="enable-background:new 0 0 24 24;"
   xml:space="preserve"
   sodipodi:docname="green-flag.svg"
   inkscape:version="1.1.2 (0a00cf5339, 2022-02-04)"
   xmlns:inkscape="http://www.inkscape.org/namespaces/inkscape"
   xmlns:sodipodi="http://sodipodi.sourceforge.net/DTD/sodipodi-0.dtd"
   xmlns="http://www.w3.org/2000/svg"
   xmlns:svg="http://www.w3.org/2000/svg"><defs
   id="defs13" /><sodipodi:namedview
   id="namedview11"
   pagecolor="#ffffff"
   bordercolor="#666666"
   borderopacity="1.0"
   inkscape:pageshadow="2"
   inkscape:pageopacity="0.0"
   inkscape:pagecheckerboard="0"
   showgrid="false"
   inkscape:zoom="36.375"
   inkscape:cx="12"
   inkscape:cy="12"
   inkscape:window-width="2560"
   inkscape:window-height="1331"
   inkscape:window-x="0"
   inkscape:window-y="0"
   inkscape:window-maximized="1"
   inkscape:current-layer="greenflag" />
<style
   type="text/css"
   id="style2">
	<!-- .st0{fill:#45993D;}
	.st1{fill:#4CBF56;} -->
	.st0{fill:#003080;}
	.st1{fill:#007AF4;}
</style>
<title
   id="title4">greenflag</title>
<path
   class="st0"
   d="M20.8,3.7c-0.4-0.2-0.9-0.1-1.2,0.2c-2,1.6-4.8,1.6-6.8,0c-2.3-1.9-5.6-2.3-8.3-1V2.5c0-0.6-0.5-1-1-1  s-1,0.4-1,1v18.8c0,0.5,0.5,1,1,1h0.1c0.5,0,1-0.5,1-1v-6.4c1-0.7,2.1-1.2,3.4-1.3c1.2,0,2.4,0.4,3.4,1.2c2.9,2.3,7,2.3,9.8,0  c0.3-0.2,0.4-0.5,0.4-0.9V4.7C21.6,4.2,21.3,3.8,20.8,3.7z M20.5,13.9C20.5,13.9,20.5,13.9,20.5,13.9C18,16,14.4,16,11.9,14  c-1.1-0.9-2.5-1.4-4-1.4c-1.2,0.1-2.3,0.5-3.4,1.1V4C7,2.6,10,2.9,12.2,4.6c2.4,1.9,5.7,1.9,8.1,0c0.1,0,0.1,0,0.2,0  c0,0,0.1,0.1,0.1,0.1L20.5,13.9z"
   id="path6" />
<path
   class="st1"
   d="M20.6,4.8l-0.1,9.1c0,0,0,0.1,0,0.1c-2.5,2-6.1,2-8.6,0c-1.1-0.9-2.5-1.4-4-1.4c-1.2,0.1-2.3,0.5-3.4,1.1V4  C7,2.6,10,2.9,12.2,4.6c2.4,1.9,5.7,1.9,8.1,0c0.1,0,0.1,0,0.2,0C20.5,4.7,20.6,4.7,20.6,4.8z"
   id="path8"
   style="font-variation-settings:normal;opacity:1;vector-effect:none;fill:#44aa00;fill-opacity:1;stroke:none;stroke-width:1;stroke-linecap:butt;stroke-linejoin:miter;stroke-miterlimit:10;stroke-dasharray:none;stroke-dashoffset:0;stroke-opacity:1;-inkscape-stroke:none;stop-color:#000000;stop-opacity:1" />
</svg>
